<svg width="224" height="82" viewBox="0 0 224 82" fill="none" xmlns="http://www.w3.org/2000/svg">
<g clip-path="url(#clip0_2006_2)">
<path opacity="0.2" d="M37.4162 0H37.4161C16.7518 0 0 16.7518 0 37.4161V37.4162C0 58.0805 16.7518 74.8323 37.4161 74.8323H37.4162C58.0805 74.8323 74.8323 58.0805 74.8323 37.4162V37.4161C74.8323 16.7518 58.0805 0 37.4162 0Z" fill="white"/>
<path d="M82.6265 56.1238C82.6265 42.3475 71.4587 31.1797 57.6824 31.1797C43.9062 31.1797 32.7383 42.3475 32.7383 56.1238C32.7383 69.9 43.9062 81.0679 57.6824 81.0679C71.4587 81.0679 82.6265 69.9 82.6265 56.1238Z" fill="white"/>
<path d="M114.014 35.4106V56H110.242L101.301 43.0522H101.135V56H96.7964V35.4106H100.61L109.495 48.3584H109.675V35.4106H114.014ZM124.488 56.304C122.932 56.304 121.582 55.9724 120.44 55.3091C119.306 54.6366 118.431 53.7062 117.814 52.5178C117.206 51.3202 116.902 49.9291 116.902 48.3446C116.902 46.7509 117.206 45.3553 117.814 44.1577C118.431 42.9601 119.306 42.0296 120.44 41.3664C121.582 40.6939 122.932 40.3576 124.488 40.3576C126.054 40.3576 127.404 40.6939 128.537 41.3664C129.679 42.0296 130.555 42.9601 131.163 44.1577C131.78 45.3553 132.088 46.7509 132.088 48.3446C132.088 49.9291 131.78 51.3202 131.163 52.5178C130.555 53.7062 129.679 54.6366 128.537 55.3091C127.404 55.9724 126.054 56.304 124.488 56.304ZM121.255 48.317C121.255 49.662 121.527 50.7721 122.07 51.6472C122.614 52.5224 123.424 52.96 124.502 52.96C125.571 52.96 126.377 52.5224 126.92 51.6472C127.464 50.7721 127.736 49.662 127.736 48.317C127.736 46.972 127.464 45.8665 126.92 45.0006C126.377 44.1346 125.571 43.7017 124.502 43.7017C123.424 43.7017 122.614 44.1346 122.07 45.0006C121.527 45.8665 121.255 46.972 121.255 48.317ZM139.315 56.2902C137.842 56.2902 136.616 55.9079 135.64 55.1433C134.673 54.3694 134.189 53.2179 134.189 51.6887C134.189 50.5371 134.456 49.6343 134.99 48.9803C135.534 48.317 136.248 47.8333 137.132 47.5293C138.017 47.2161 138.965 47.0135 139.979 46.9213C141.324 46.7924 142.282 46.6588 142.853 46.5206C143.433 46.3732 143.724 46.0508 143.724 45.5533V45.4842C143.724 44.8486 143.521 44.3557 143.116 44.0057C142.71 43.6556 142.125 43.4806 141.361 43.4806C140.596 43.4806 139.97 43.6464 139.481 43.978C139.002 44.3097 138.684 44.7334 138.528 45.2493L134.631 44.6275C135 43.2825 135.773 42.2369 136.953 41.4907C138.141 40.7353 139.615 40.3576 141.374 40.3576C142.517 40.3576 143.59 40.5373 144.594 40.8965C145.607 41.2558 146.427 41.8224 147.054 42.5962C147.68 43.3608 147.993 44.3557 147.993 45.581V56H143.945V53.8443H143.82C143.443 54.5721 142.881 55.1617 142.134 55.6131C141.397 56.0645 140.458 56.2902 139.315 56.2902ZM138.265 51.5505C138.265 52.1401 138.477 52.5869 138.901 52.8909C139.334 53.1857 139.877 53.3331 140.531 53.3331C141.471 53.3331 142.24 53.0613 142.839 52.5178C143.447 51.9743 143.751 51.2972 143.751 50.4865V48.8421C143.585 48.9526 143.323 49.054 142.964 49.1461C142.613 49.2382 142.24 49.3165 141.844 49.381C141.448 49.4363 141.093 49.4869 140.78 49.533C140.025 49.6436 139.417 49.86 138.956 50.1825C138.496 50.4957 138.265 50.9517 138.265 51.5505ZM155.234 35.4106L160.195 51.053H160.402L165.377 35.4106H170.2L163.097 56H157.5L150.384 35.4106H155.234ZM176.984 56.2902C175.51 56.2902 174.285 55.9079 173.309 55.1433C172.341 54.3694 171.858 53.2179 171.858 51.6887C171.858 50.5371 172.125 49.6343 172.659 48.9803C173.203 48.317 173.917 47.8333 174.801 47.5293C175.685 47.2161 176.634 47.0135 177.648 46.9213C178.993 46.7924 179.951 46.6588 180.522 46.5206C181.102 46.3732 181.392 46.0508 181.392 45.5533V45.4842C181.392 44.8486 181.19 44.3557 180.784 44.0057C180.379 43.6556 179.794 43.4806 179.029 43.4806C178.265 43.4806 177.638 43.6464 177.15 43.978C176.671 44.3097 176.353 44.7334 176.197 45.2493L172.3 44.6275C172.668 43.2825 173.442 42.2369 174.621 41.4907C175.81 40.7353 177.284 40.3576 179.043 40.3576C180.186 40.3576 181.259 40.5373 182.263 40.8965C183.276 41.2558 184.096 41.8224 184.723 42.5962C185.349 43.3608 185.662 44.3557 185.662 45.581V56H181.613V53.8443H181.489C181.111 54.5721 180.549 55.1617 179.803 55.6131C179.066 56.0645 178.127 56.2902 176.984 56.2902ZM175.934 51.5505C175.934 52.1401 176.146 52.5869 176.57 52.8909C177.003 53.1857 177.546 53.3331 178.2 53.3331C179.14 53.3331 179.909 53.0613 180.508 52.5178C181.116 51.9743 181.42 51.2972 181.42 50.4865V48.8421C181.254 48.9526 180.992 49.054 180.632 49.1461C180.282 49.2382 179.909 49.3165 179.513 49.381C179.117 49.4363 178.762 49.4869 178.449 49.533C177.694 49.6436 177.086 49.86 176.625 50.1825C176.164 50.4957 175.934 50.9517 175.934 51.5505ZM198.997 49.4363V40.5511H203.281V56H199.163V53.1949H198.997C198.656 54.0977 198.08 54.8254 197.27 55.3782C196.468 55.9309 195.487 56.2027 194.326 56.1935C192.769 56.2027 191.507 55.6914 190.54 54.6596C189.582 53.6186 189.103 52.1953 189.103 50.3897V40.5511H193.387V49.6436C193.387 50.5464 193.631 51.2649 194.119 51.7992C194.607 52.3243 195.257 52.5823 196.067 52.573C196.832 52.5823 197.509 52.3197 198.099 51.7854C198.698 51.2511 198.997 50.4681 198.997 49.4363ZM210.991 35.4106V56H206.708V35.4106H210.991ZM222.626 40.5511V43.7846H219.697V51.2465C219.697 52.2506 220.185 52.7527 221.162 52.7527C221.327 52.7527 221.507 52.7389 221.701 52.7112C221.903 52.6836 222.078 52.6514 222.226 52.6145L222.903 55.8204C221.991 56.0875 221.106 56.2211 220.25 56.2211C218.72 56.2211 217.532 55.8342 216.684 55.0604C215.846 54.2865 215.427 53.2041 215.427 51.813V43.7846H213.327V40.5511H215.427V36.8754H219.697V40.5511H222.626Z" fill="white"/>
</g>
<defs>
<clipPath id="clip0_2006_2">
<rect width="224" height="82" fill="white"/>
</clipPath>
</defs>
</svg>