<svg width="224" height="82" viewBox="0 0 224 82" fill="none" xmlns="http://www.w3.org/2000/svg">
  <rect opacity="0.2" width="74.8323" height="74.8323" rx="37.4161" fill="#FA7275" />
  <ellipse cx="57.6824" cy="56.1238" rx="24.9441" ry="24.9441" fill="#FA7275" />
<path d="M116.014 31.4106V52H112.242L103.301 39.0522H103.135V52H98.7964V31.4106H102.61L111.495 44.3584H111.675V31.4106H116.014ZM126.488 52.304C124.932 52.304 123.582 51.9724 122.44 51.3091C121.306 50.6366 120.431 49.7062 119.814 48.5178C119.206 47.3202 118.902 45.9291 118.902 44.3446C118.902 42.7509 119.206 41.3553 119.814 40.1577C120.431 38.9601 121.306 38.0296 122.44 37.3664C123.582 36.6939 124.932 36.3576 126.488 36.3576C128.054 36.3576 129.404 36.6939 130.537 37.3664C131.679 38.0296 132.555 38.9601 133.163 40.1577C133.78 41.3553 134.088 42.7509 134.088 44.3446C134.088 45.9291 133.78 47.3202 133.163 48.5178C132.555 49.7062 131.679 50.6366 130.537 51.3091C129.404 51.9724 128.054 52.304 126.488 52.304ZM123.255 44.317C123.255 45.662 123.527 46.7721 124.07 47.6472C124.614 48.5224 125.424 48.96 126.502 48.96C127.571 48.96 128.377 48.5224 128.92 47.6472C129.464 46.7721 129.736 45.662 129.736 44.317C129.736 42.972 129.464 41.8665 128.92 41.0006C128.377 40.1346 127.571 39.7017 126.502 39.7017C125.424 39.7017 124.614 40.1346 124.07 41.0006C123.527 41.8665 123.255 42.972 123.255 44.317ZM141.315 52.2902C139.842 52.2902 138.616 51.9079 137.64 51.1433C136.673 50.3694 136.189 49.2179 136.189 47.6887C136.189 46.5371 136.456 45.6343 136.99 44.9803C137.534 44.317 138.248 43.8333 139.132 43.5293C140.017 43.2161 140.965 43.0135 141.979 42.9213C143.324 42.7924 144.282 42.6588 144.853 42.5206C145.433 42.3732 145.724 42.0508 145.724 41.5533V41.4842C145.724 40.8486 145.521 40.3557 145.116 40.0057C144.71 39.6556 144.125 39.4806 143.361 39.4806C142.596 39.4806 141.97 39.6464 141.481 39.978C141.002 40.3097 140.684 40.7334 140.528 41.2493L136.631 40.6275C137 39.2825 137.773 38.2369 138.953 37.4907C140.141 36.7353 141.615 36.3576 143.374 36.3576C144.517 36.3576 145.59 36.5373 146.594 36.8965C147.607 37.2558 148.427 37.8224 149.054 38.5962C149.68 39.3608 149.993 40.3557 149.993 41.581V52H145.945V49.8443H145.82C145.443 50.5721 144.881 51.1617 144.134 51.6131C143.397 52.0645 142.458 52.2902 141.315 52.2902ZM140.265 47.5505C140.265 48.1401 140.477 48.5869 140.901 48.8909C141.334 49.1857 141.877 49.3331 142.531 49.3331C143.471 49.3331 144.24 49.0613 144.839 48.5178C145.447 47.9743 145.751 47.2972 145.751 46.4865V44.8421C145.585 44.9526 145.323 45.054 144.964 45.1461C144.613 45.2382 144.24 45.3165 143.844 45.381C143.448 45.4363 143.093 45.4869 142.78 45.533C142.025 45.6436 141.417 45.86 140.956 46.1825C140.496 46.4957 140.265 46.9517 140.265 47.5505ZM157.234 31.4106L162.195 47.053H162.402L167.377 31.4106H172.2L165.097 52H159.5L152.384 31.4106H157.234ZM178.984 52.2902C177.51 52.2902 176.285 51.9079 175.309 51.1433C174.341 50.3694 173.858 49.2179 173.858 47.6887C173.858 46.5371 174.125 45.6343 174.659 44.9803C175.203 44.317 175.917 43.8333 176.801 43.5293C177.685 43.2161 178.634 43.0135 179.648 42.9213C180.993 42.7924 181.951 42.6588 182.522 42.5206C183.102 42.3732 183.392 42.0508 183.392 41.5533V41.4842C183.392 40.8486 183.19 40.3557 182.784 40.0057C182.379 39.6556 181.794 39.4806 181.029 39.4806C180.265 39.4806 179.638 39.6464 179.15 39.978C178.671 40.3097 178.353 40.7334 178.197 41.2493L174.3 40.6275C174.668 39.2825 175.442 38.2369 176.621 37.4907C177.81 36.7353 179.284 36.3576 181.043 36.3576C182.186 36.3576 183.259 36.5373 184.263 36.8965C185.276 37.2558 186.096 37.8224 186.723 38.5962C187.349 39.3608 187.662 40.3557 187.662 41.581V52H183.613V49.8443H183.489C183.111 50.5721 182.549 51.1617 181.803 51.6131C181.066 52.0645 180.127 52.2902 178.984 52.2902ZM177.934 47.5505C177.934 48.1401 178.146 48.5869 178.57 48.8909C179.003 49.1857 179.546 49.3331 180.2 49.3331C181.14 49.3331 181.909 49.0613 182.508 48.5178C183.116 47.9743 183.42 47.2972 183.42 46.4865V44.8421C183.254 44.9526 182.992 45.054 182.632 45.1461C182.282 45.2382 181.909 45.3165 181.513 45.381C181.117 45.4363 180.762 45.4869 180.449 45.533C179.694 45.6436 179.086 45.86 178.625 46.1825C178.164 46.4957 177.934 46.9517 177.934 47.5505ZM200.997 45.4363V36.5511H205.281V52H201.163V49.1949H200.997C200.656 50.0977 200.08 50.8254 199.27 51.3782C198.468 51.9309 197.487 52.2027 196.326 52.1935C194.769 52.2027 193.507 51.6914 192.54 50.6596C191.582 49.6186 191.103 48.1953 191.103 46.3897V36.5511H195.387V45.6436C195.387 46.5464 195.631 47.2649 196.119 47.7992C196.607 48.3243 197.257 48.5823 198.067 48.573C198.832 48.5823 199.509 48.3197 200.099 47.7854C200.698 47.2511 200.997 46.4681 200.997 45.4363ZM212.991 31.4106V52H208.708V31.4106H212.991ZM224.626 36.5511V39.7846H221.697V47.2465C221.697 48.2506 222.185 48.7527 223.162 48.7527C223.327 48.7527 223.507 48.7389 223.701 48.7112C223.903 48.6836 224.078 48.6514 224.226 48.6145L224.903 51.8204C223.991 52.0875 223.106 52.2211 222.25 52.2211C220.72 52.2211 219.532 51.8342 218.684 51.0604C217.846 50.2865 217.427 49.2041 217.427 47.813V39.7846H215.327V36.5511H217.427V32.8754H221.697V36.5511H224.626Z" fill="#FA7275"/>
</svg>
