<svg width="224" height="82" viewBox="0 0 224 82" fill="none" xmlns="http://www.w3.org/2000/svg">
<g clip-path="url(#clip0_2001_2)">
<path opacity="0.2" d="M37.4162 0H37.4161C16.7518 0 0 16.7518 0 37.4161V37.4162C0 58.0805 16.7518 74.8323 37.4161 74.8323H37.4162C58.0805 74.8323 74.8323 58.0805 74.8323 37.4162V37.4161C74.8323 16.7518 58.0805 0 37.4162 0Z" fill="#FA7275"/>
<path d="M82.6265 56.1238C82.6265 42.3475 71.4586 31.1797 57.6824 31.1797C43.9061 31.1797 32.7383 42.3475 32.7383 56.1238C32.7383 69.9 43.9061 81.0679 57.6824 81.0679C71.4586 81.0679 82.6265 69.9 82.6265 56.1238Z" fill="#FA7275"/>
<path d="M116.469 37.084V56H113.003L104.789 44.1045H104.637V56H100.65V37.084H104.154L112.317 48.9795H112.482V37.084H116.469ZM126.092 56.2793C124.661 56.2793 123.422 55.9746 122.372 55.3652C121.331 54.7474 120.527 53.8926 119.96 52.8008C119.401 51.7005 119.122 50.4225 119.122 48.9668C119.122 47.5026 119.401 46.2204 119.96 45.1201C120.527 44.0199 121.331 43.165 122.372 42.5557C123.422 41.9378 124.661 41.6289 126.092 41.6289C127.531 41.6289 128.771 41.9378 129.812 42.5557C130.861 43.165 131.665 44.0199 132.224 45.1201C132.791 46.2204 133.074 47.5026 133.074 48.9668C133.074 50.4225 132.791 51.7005 132.224 52.8008C131.665 53.8926 130.861 54.7474 129.812 55.3652C128.771 55.9746 127.531 56.2793 126.092 56.2793ZM123.121 48.9414C123.121 50.1771 123.371 51.1969 123.87 52.001C124.369 52.805 125.114 53.207 126.104 53.207C127.086 53.207 127.827 52.805 128.326 52.001C128.826 51.1969 129.075 50.1771 129.075 48.9414C129.075 47.7057 128.826 46.6901 128.326 45.8945C127.827 45.099 127.086 44.7012 126.104 44.7012C125.114 44.7012 124.369 45.099 123.87 45.8945C123.371 46.6901 123.121 47.7057 123.121 48.9414ZM139.714 56.2666C138.36 56.2666 137.234 55.9154 136.337 55.2129C135.448 54.502 135.004 53.444 135.004 52.0391C135.004 50.9811 135.249 50.1517 135.74 49.5508C136.24 48.9414 136.896 48.4971 137.708 48.2178C138.521 47.93 139.392 47.7438 140.323 47.6592C141.559 47.5407 142.439 47.418 142.964 47.291C143.497 47.1556 143.764 46.8594 143.764 46.4023V46.3389C143.764 45.7549 143.577 45.3021 143.205 44.9805C142.833 44.6589 142.295 44.498 141.593 44.498C140.89 44.498 140.315 44.6504 139.866 44.9551C139.426 45.2598 139.134 45.6491 138.99 46.123L135.41 45.5518C135.749 44.3161 136.46 43.3555 137.543 42.6699C138.635 41.9759 139.989 41.6289 141.605 41.6289C142.655 41.6289 143.641 41.7939 144.563 42.124C145.494 42.4541 146.248 42.9746 146.823 43.6855C147.399 44.388 147.687 45.3021 147.687 46.4277V56H143.967V54.0195H143.853C143.506 54.6882 142.989 55.2298 142.304 55.6445C141.627 56.0592 140.763 56.2666 139.714 56.2666ZM138.749 51.9121C138.749 52.4538 138.944 52.8643 139.333 53.1436C139.731 53.4144 140.23 53.5498 140.831 53.5498C141.694 53.5498 142.401 53.3001 142.951 52.8008C143.51 52.3014 143.789 51.6794 143.789 50.9346V49.4238C143.637 49.5254 143.396 49.6185 143.065 49.7031C142.744 49.7878 142.401 49.8597 142.037 49.9189C141.673 49.9697 141.347 50.0163 141.06 50.0586C140.366 50.1602 139.807 50.359 139.384 50.6553C138.961 50.943 138.749 51.362 138.749 51.9121ZM154.339 37.084L158.896 51.4551H159.087L163.657 37.084H168.088L161.562 56H156.421L149.883 37.084H154.339ZM174.321 56.2666C172.967 56.2666 171.841 55.9154 170.944 55.2129C170.056 54.502 169.611 53.444 169.611 52.0391C169.611 50.9811 169.857 50.1517 170.348 49.5508C170.847 48.9414 171.503 48.4971 172.315 48.2178C173.128 47.93 174 47.7438 174.931 47.6592C176.166 47.5407 177.047 47.418 177.571 47.291C178.104 47.1556 178.371 46.8594 178.371 46.4023V46.3389C178.371 45.7549 178.185 45.3021 177.812 44.9805C177.44 44.6589 176.903 44.498 176.2 44.498C175.498 44.498 174.922 44.6504 174.474 44.9551C174.034 45.2598 173.742 45.6491 173.598 46.123L170.018 45.5518C170.356 44.3161 171.067 43.3555 172.15 42.6699C173.242 41.9759 174.596 41.6289 176.213 41.6289C177.262 41.6289 178.248 41.7939 179.171 42.124C180.102 42.4541 180.855 42.9746 181.431 43.6855C182.006 44.388 182.294 45.3021 182.294 46.4277V56H178.574V54.0195H178.46C178.113 54.6882 177.597 55.2298 176.911 55.6445C176.234 56.0592 175.371 56.2666 174.321 56.2666ZM173.356 51.9121C173.356 52.4538 173.551 52.8643 173.94 53.1436C174.338 53.4144 174.838 53.5498 175.438 53.5498C176.302 53.5498 177.008 53.3001 177.559 52.8008C178.117 52.3014 178.396 51.6794 178.396 50.9346V49.4238C178.244 49.5254 178.003 49.6185 177.673 49.7031C177.351 49.7878 177.008 49.8597 176.645 49.9189C176.281 49.9697 175.955 50.0163 175.667 50.0586C174.973 50.1602 174.414 50.359 173.991 50.6553C173.568 50.943 173.356 51.362 173.356 51.9121ZM194.545 49.9697V41.8066H198.48V56H194.697V53.4229H194.545C194.232 54.2523 193.703 54.9209 192.958 55.4287C192.222 55.9365 191.32 56.1862 190.254 56.1777C188.824 56.1862 187.664 55.7165 186.775 54.7686C185.895 53.8122 185.455 52.5046 185.455 50.8457V41.8066H189.391V50.1602C189.391 50.9896 189.615 51.6497 190.063 52.1406C190.512 52.623 191.109 52.86 191.854 52.8516C192.556 52.86 193.178 52.6188 193.72 52.1279C194.27 51.637 194.545 50.9176 194.545 49.9697ZM205.564 37.084V56H201.629V37.084H205.564ZM216.254 41.8066V44.7773H213.562V51.6328C213.562 52.5553 214.011 53.0166 214.908 53.0166C215.061 53.0166 215.226 53.0039 215.403 52.9785C215.59 52.9531 215.75 52.9235 215.886 52.8896L216.508 55.835C215.67 56.0804 214.857 56.2031 214.07 56.2031C212.665 56.2031 211.574 55.8477 210.795 55.1367C210.025 54.4258 209.64 53.4313 209.64 52.1533V44.7773H207.71V41.8066H209.64V38.4297H213.562V41.8066H216.254Z" fill="#FA7275"/>
</g>
<defs>
<clipPath id="clip0_2001_2">
<rect width="224" height="82" fill="white"/>
</clipPath>
</defs>
</svg>
